<svg width="128" height="128" viewBox="0 0 128 128" xmlns="http://www.w3.org/2000/svg">
  <defs>
    <linearGradient id="grad1" x1="0%" y1="0%" x2="100%" y2="100%">
      <stop offset="0%" style="stop-color:#667eea;stop-opacity:1" />
      <stop offset="100%" style="stop-color:#764ba2;stop-opacity:1" />
    </linearGradient>
  </defs>
  
  <!-- Background circle -->
  <circle cx="64" cy="64" r="60" fill="url(#grad1)" stroke="#fff" stroke-width="4"/>
  
  <!-- Money bag -->
  <path d="M45 35 L55 25 L73 25 L83 35 L83 45 C83 55 78 65 70 70 L70 75 C70 80 65 85 60 85 L48 85 C43 85 38 80 38 75 L38 70 C30 65 25 55 25 45 L25 35 Z" 
        fill="#FFD700" stroke="#B8860B" stroke-width="2"/>
  
  <!-- Dollar sign on money bag -->
  <text x="54" y="58" font-family="Arial, sans-serif" font-size="16" font-weight="bold" fill="#B8860B">$</text>
  
  <!-- Search magnifying glass -->
  <circle cx="85" cy="45" r="12" fill="none" stroke="#fff" stroke-width="3"/>
  <line x1="95" y1="55" x2="105" y2="65" stroke="#fff" stroke-width="3" stroke-linecap="round"/>
  
  <!-- Robux symbol -->
  <text x="64" y="105" font-family="Arial, sans-serif" font-size="12" font-weight="bold" fill="#fff">R$</text>
</svg>